# xmcd
#
# Track frame offsets:
#	150
#	17278
#	32245
#	46011
#	67256
#	81720
#	99149
#	112437
#	122496
#	138972
#	140171
#	165992
#	182922
#	185198
#	207617
#
# Disc length: 2885 seconds
#
# Revision: 2
# Processed by: cddbd v1.5.2PL0 Copyright (c) Steve Scherf et al.
# Submitted via: EasyCDDAExtractor 8.2.3.1
#
DISCID=e00b430f
DTITLE=Steve James - Boom Chang
DYEAR=2000
DGENRE=Blues
TTITLE0=Galway Station Blues
TTITLE1=The Gina Reel
TTITLE2=Way Out On The Desert
TTITLE3=Stack Lee's Blues
TTITLE4=Born To Lose
TTITLE5=Country Fool
TTITLE6=Squaw Teat Mouintain Breakdown
TTITLE7=Willie's Place
TTITLE8=Been All Around This World
TTITLE9=Voice Mail
TTITLE10=Sonny Payne
TTITLE11=Saturday Night In Jail
TTITLE12=Saturday Night In Jail... Chorus Reprise
TTITLE13=Seeds
TTITLE14=Bonus
EXTD=
EXTT0=
EXTT1=
EXTT2=
EXTT3=
EXTT4=
EXTT5=
EXTT6=
EXTT7=
EXTT8=
EXTT9=
EXTT10=
EXTT11=
EXTT12=
EXTT13=
EXTT14=
PLAYORDER=
